<svg width="122" height="122" viewBox="0 0 122 122" fill="none" xmlns="http://www.w3.org/2000/svg">
<path d="M111.096 70.9232H93.5627C92.8984 70.9232 92.2612 70.6593 91.7915 70.1896C91.3218 69.7198 91.0579 69.0827 91.0579 68.4184V50.8848H107.089" stroke="#626262" stroke-width="7.51442" stroke-linecap="round" stroke-linejoin="round"/>
<path d="M93.8467 93.1834C94.8976 94.2343 95.6134 95.5732 95.9034 97.0308C96.1934 98.4885 96.0447 99.9994 95.476 101.373C94.9074 102.746 93.9443 103.919 92.7086 104.745C91.4729 105.571 90.0201 106.012 88.5338 106.012C87.0476 106.012 85.5948 105.571 84.359 104.745C83.1232 103.92 82.16 102.746 81.5912 101.373C81.0224 100 80.8735 98.4893 81.1634 97.0316C81.4532 95.5739 82.1688 94.235 83.2197 93.184L83.2202 93.1834C84.6294 91.7743 86.5406 90.9827 88.5334 90.9827C90.5262 90.9827 92.4374 91.7743 93.8466 93.1834V93.1834" stroke="#626262" stroke-width="7.51442" stroke-linecap="round" stroke-linejoin="round"/>
<path d="M38.741 93.1828C39.7919 94.2337 40.5077 95.5726 40.7977 97.0302C41.0877 98.4879 40.939 99.9988 40.3703 101.372C39.8016 102.745 38.8386 103.919 37.6029 104.744C36.3672 105.57 34.9144 106.011 33.4281 106.011C31.9419 106.011 30.4891 105.57 29.2533 104.745C28.0175 103.919 27.0543 102.746 26.4855 101.373C25.9167 99.9996 25.7678 98.4887 26.0576 97.031C26.3475 95.5733 27.0631 94.2344 28.114 93.1834V93.1834L28.1155 93.1818C29.5244 91.773 31.4353 90.9814 33.4278 90.9814C35.4202 90.9814 37.3311 91.773 38.74 93.1818L38.7409 93.1827" stroke="#626262" stroke-width="7.51442" stroke-linecap="round" stroke-linejoin="round"/>
<path d="M81.4462 95.9922H40.5127" stroke="#626262" stroke-width="7.51442" stroke-linecap="round" stroke-linejoin="round"/>
<path d="M95.6186 95.9919H106.086C107.415 95.9919 108.689 95.4641 109.629 94.5246C110.568 93.5851 111.096 92.3109 111.096 90.9823V62.8346C111.096 61.5606 110.853 60.2984 110.38 59.1156L103.593 42.1536C102.849 40.2945 101.566 38.701 99.9076 37.5785C98.2495 36.4559 96.2931 35.856 94.2908 35.856H76.0288" stroke="#626262" stroke-width="7.51442" stroke-linecap="round" stroke-linejoin="round"/>
<path d="M26.3416 95.9921H15.9137C14.585 95.9921 13.3108 95.4643 12.3713 94.5248C11.4318 93.5853 10.9041 92.3111 10.9041 90.9825V60.9248" stroke="#626262" stroke-width="7.51442" stroke-linecap="round" stroke-linejoin="round"/>
<path d="M10.9041 75.933H71.0194C72.348 75.933 73.6222 75.4052 74.5617 74.4657C75.5012 73.5263 76.029 72.252 76.029 70.9234V30.8465C76.029 29.5179 75.5012 28.2437 74.5617 27.3042C73.6222 26.3647 72.348 25.8369 71.0194 25.8369H61.0002" stroke="#626262" stroke-width="7.51442" stroke-linecap="round" stroke-linejoin="round"/>
<path d="M10.9041 28.3625C10.9041 36.5709 19.8612 45.3392 24.971 49.6752C25.9501 50.4713 27.1734 50.9058 28.4352 50.9058C29.697 50.9058 30.9203 50.4713 31.8993 49.6752C37.0141 45.3392 45.9713 36.5709 45.9713 28.3625" stroke="#626262" stroke-width="7.51442" stroke-linecap="round" stroke-linejoin="round"/>
<path d="M28.4425 27.0599C28.6999 27.0609 28.9513 27.1381 29.1648 27.2818C29.3783 27.4255 29.5445 27.6293 29.6423 27.8674C29.7401 28.1055 29.7652 28.3672 29.7144 28.6195C29.6636 28.8719 29.5391 29.1035 29.3568 29.2851C29.1744 29.4668 28.9423 29.5903 28.6898 29.6402C28.4373 29.69 28.1756 29.664 27.9379 29.5652C27.7002 29.4665 27.4971 29.2996 27.3542 29.0855C27.2113 28.8714 27.135 28.6198 27.135 28.3624C27.1341 28.1906 27.1673 28.0204 27.2328 27.8617C27.2982 27.7029 27.3946 27.5587 27.5163 27.4375C27.6379 27.3163 27.7825 27.2205 27.9415 27.1557C28.1005 27.0909 28.2708 27.0583 28.4425 27.0599Z" stroke="#626262" stroke-width="7.51442" stroke-linecap="round" stroke-linejoin="round"/>
<path d="M10.9041 28.3625C10.9041 23.7123 12.7513 19.2525 16.0395 15.9643C19.3277 12.6761 23.7875 10.8289 28.4377 10.8289V10.8289C33.0879 10.8289 37.5476 12.6761 40.8358 15.9643C44.124 19.2525 45.9713 23.7123 45.9713 28.3625V28.3625" stroke="#626262" stroke-width="7.51442" stroke-linecap="round" stroke-linejoin="round"/>
<circle cx="28.4378" cy="28.3623" r="4.68507" fill="#626262"/>
</svg>
