<svg width="121" height="121" viewBox="0 0 121 121" fill="none" xmlns="http://www.w3.org/2000/svg">
<path d="M15.4529 45.9136C15.4529 51.4449 26.6558 55.9251 40.4817 55.9251" stroke="#626262" stroke-width="7.50865" stroke-linecap="round" stroke-linejoin="round"/>
<path d="M40.4767 75.9481C26.6558 75.9481 15.4529 71.4679 15.4529 65.9365" stroke="#626262" stroke-width="7.50865" stroke-linecap="round" stroke-linejoin="round"/>
<path d="M65.5007 25.8904H65.5057V40.9077" stroke="#626262" stroke-width="7.50865" stroke-linecap="round" stroke-linejoin="round"/>
<path d="M55.499 80.9539C55.499 86.4852 66.7019 90.9654 80.5278 90.9654C94.3538 90.9654 105.557 86.4852 105.557 80.9539" stroke="#626262" stroke-width="7.50865" stroke-linecap="round" stroke-linejoin="round"/>
<path d="M55.499 60.9307C55.499 66.462 66.7019 70.9422 80.5278 70.9422C94.3538 70.9422 105.557 66.462 105.557 60.9307" stroke="#626262" stroke-width="7.50865" stroke-linecap="round" stroke-linejoin="round"/>
<path d="M80.5227 50.9192C66.7068 50.9192 55.4939 55.3993 55.5039 60.9307" stroke="#626262" stroke-width="7.50865" stroke-linecap="round" stroke-linejoin="round"/>
<path d="M55.499 60.9307V100.977C55.499 106.508 66.7019 110.988 80.5278 110.988" stroke="#626262" stroke-width="7.50865" stroke-linecap="round" stroke-linejoin="round"/>
<path d="M80.5229 50.9192C94.3389 50.9192 105.552 55.3993 105.542 60.9307" stroke="#626262" stroke-width="7.50865" stroke-linecap="round" stroke-linejoin="round"/>
<path d="M105.552 60.9307V100.977C105.552 106.508 94.3489 110.988 80.5229 110.988" stroke="#626262" stroke-width="7.50865" stroke-linecap="round" stroke-linejoin="round"/>
<path d="M40.4768 95.971C26.6559 95.971 15.448 91.4908 15.448 85.9595" stroke="#626262" stroke-width="7.50865" stroke-linecap="round" stroke-linejoin="round"/>
<path d="M40.4768 35.902C54.2999 35.902 65.5057 31.4197 65.5057 25.8904C65.5057 20.3612 54.2999 15.8789 40.4768 15.8789C26.6538 15.8789 15.448 20.3612 15.448 25.8904C15.448 31.4197 26.6538 35.902 40.4768 35.902Z" stroke="#626262" stroke-width="7.50865" stroke-linecap="round" stroke-linejoin="round"/>
<path d="M15.448 25.8904V85.9596" stroke="#626262" stroke-width="7.50865" stroke-linecap="round" stroke-linejoin="round"/>
</svg>
