<svg width="121" height="122" viewBox="0 0 121 122" fill="none" xmlns="http://www.w3.org/2000/svg">
<g clip-path="url(#clip0_11_215)">
<path d="M95.5753 85.9787H90.5645C87.7985 85.9787 85.5537 83.7339 85.5537 80.968V55.9141C85.5537 53.1481 87.7985 50.9033 90.5645 50.9033H95.5753C101.112 50.9033 105.597 55.388 105.597 60.9249V75.9572C105.597 81.4941 101.112 85.9787 95.5753 85.9787Z" stroke="#626262" stroke-width="7.51616" stroke-linecap="round" stroke-linejoin="round"/>
<path d="M30.4352 85.9787H25.4244C19.8875 85.9787 15.4028 81.4941 15.4028 75.9572V60.9249C15.4028 55.388 19.8875 50.9033 25.4244 50.9033H30.4352C33.2011 50.9033 35.4459 53.1481 35.4459 55.9141V80.968C35.4459 83.7339 33.2011 85.9787 30.4352 85.9787Z" stroke="#626262" stroke-width="7.51616" stroke-linecap="round" stroke-linejoin="round"/>
<path d="M93.07 50.9033V48.3979C93.07 30.4092 78.4886 15.8279 60.5 15.8279C42.5113 15.8279 27.9299 30.4092 27.9299 48.3979V50.9033" stroke="#626262" stroke-width="7.51616" stroke-linecap="round" stroke-linejoin="round"/>
<path d="M63.6317 107.274H57.3682C53.9108 107.274 51.1047 104.468 51.1047 101.011C51.1047 97.5536 53.9108 94.7476 57.3682 94.7476H63.6317C67.0891 94.7476 69.8951 97.5536 69.8951 101.011C69.8951 104.468 67.0891 107.274 63.6317 107.274Z" stroke="#626262" stroke-width="7.51616" stroke-linecap="round" stroke-linejoin="round"/>
<path d="M69.895 101.011H80.5429C86.0798 101.011 90.5645 96.5264 90.5645 90.9895V85.9788" stroke="#626262" stroke-width="7.51616" stroke-linecap="round" stroke-linejoin="round"/>
</g>
<defs>
<clipPath id="clip0_11_215">
<rect width="120.259" height="120.259" fill="white" transform="translate(0.370605 0.795654)"/>
</clipPath>
</defs>
</svg>
