<svg width="123" height="122" viewBox="0 0 123 122" fill="none" xmlns="http://www.w3.org/2000/svg">
<g clip-path="url(#clip0_11_232)">
<path d="M92.2397 45.7121L91.54 35.2306C91.3675 32.5684 89.1516 30.4995 86.4843 30.4995H24.9798C22.3074 30.4995 20.0965 32.5684 19.919 35.2306L15.8877 95.7463C15.4972 101.598 20.1371 106.563 26.0041 106.563H46.2875" stroke="#626262" stroke-width="7.6063" stroke-linecap="round" stroke-linejoin="round"/>
<path fill-rule="evenodd" clip-rule="evenodd" d="M102.067 106.562H67.8387C65.0396 106.562 62.7678 104.291 62.7678 101.492V83.1097C62.7678 80.3106 65.0396 78.0388 67.8387 78.0388H102.067C104.866 78.0388 107.138 80.3106 107.138 83.1097V101.492C107.138 104.291 104.866 106.562 102.067 106.562Z" stroke="#626262" stroke-width="7.6063" stroke-linecap="round" stroke-linejoin="round"/>
<path d="M85.2925 78.0643C88.1018 78.0643 93.8978 77.1516 97.5843 73.3028C100.297 70.4682 100.297 65.879 97.5843 63.0444C94.8714 60.2098 90.4699 60.2098 87.757 63.0444C83.6039 67.3851 85.2925 78.0643 85.2925 78.0643Z" stroke="#626262" stroke-width="7.6063" stroke-linecap="round" stroke-linejoin="round"/>
<path d="M84.6126 78.0643C81.8033 78.0643 76.0073 77.1516 72.3208 73.3028C69.6079 70.4682 69.6079 65.879 72.3208 63.0444C75.0337 60.2098 79.4352 60.2098 82.1482 63.0444C86.3012 67.3851 84.6126 78.0643 84.6126 78.0643Z" stroke="#626262" stroke-width="7.6063" stroke-linecap="round" stroke-linejoin="round"/>
<path d="M40.5171 40.6413V25.4287C40.5171 17.0262 47.3273 10.2161 55.7297 10.2161C64.1321 10.2161 70.9423 17.0262 70.9423 25.4287V40.6413" stroke="#626262" stroke-width="7.6063" stroke-linecap="round" stroke-linejoin="round"/>
</g>
<defs>
<clipPath id="clip0_11_232">
<rect width="121.701" height="121.701" fill="white" transform="translate(0.649658 0.0744629)"/>
</clipPath>
</defs>
</svg>
