<svg width="120" height="120" viewBox="0 0 120 120" fill="none" xmlns="http://www.w3.org/2000/svg">
<path d="M70 40H50C44.4772 40 40 44.4772 40 50V70C40 75.5228 44.4772 80 50 80H70C75.5228 80 80 75.5228 80 70V50C80 44.4772 75.5228 40 70 40Z" stroke="#626262" stroke-width="7.5" stroke-linecap="round" stroke-linejoin="round"/>
<path d="M47.5 105V95" stroke="#626262" stroke-width="7.5" stroke-linecap="round" stroke-linejoin="round"/>
<path d="M60 105V95" stroke="#626262" stroke-width="7.5" stroke-linecap="round" stroke-linejoin="round"/>
<path d="M72.5 105V95" stroke="#626262" stroke-width="7.5" stroke-linecap="round" stroke-linejoin="round"/>
<path d="M72.5 15V25.0001" stroke="#626262" stroke-width="7.5" stroke-linecap="round" stroke-linejoin="round"/>
<path d="M60 15V25.0001" stroke="#626262" stroke-width="7.5" stroke-linecap="round" stroke-linejoin="round"/>
<path d="M47.5 15V25.0001" stroke="#626262" stroke-width="7.5" stroke-linecap="round" stroke-linejoin="round"/>
<path d="M15 47.5H25.0001" stroke="#626262" stroke-width="7.5" stroke-linecap="round" stroke-linejoin="round"/>
<path d="M15 60H25.0001" stroke="#626262" stroke-width="7.5" stroke-linecap="round" stroke-linejoin="round"/>
<path d="M15 72.5H25.0001" stroke="#626262" stroke-width="7.5" stroke-linecap="round" stroke-linejoin="round"/>
<path d="M105 72.5H95" stroke="#626262" stroke-width="7.5" stroke-linecap="round" stroke-linejoin="round"/>
<path d="M105 60H95" stroke="#626262" stroke-width="7.5" stroke-linecap="round" stroke-linejoin="round"/>
<path d="M105 47.5H95" stroke="#626262" stroke-width="7.5" stroke-linecap="round" stroke-linejoin="round"/>
<path d="M85 15H35C23.9543 15 15 23.9543 15 35V85C15 96.0457 23.9543 105 35 105H85C96.0457 105 105 96.0457 105 85V35C105 23.9543 96.0457 15 85 15Z" stroke="#626262" stroke-width="7.5" stroke-linecap="round" stroke-linejoin="round"/>
<path d="M29.9998 30.2498C30.0492 30.2498 30.0976 30.2351 30.1387 30.2076C30.1798 30.1802 30.2118 30.1411 30.2307 30.0954C30.2497 30.0497 30.2546 29.9995 30.245 29.951C30.2353 29.9025 30.2115 29.8579 30.1765 29.823C30.1416 29.788 30.097 29.7642 30.0485 29.7546C30 29.7449 29.9498 29.7499 29.9041 29.7688C29.8584 29.7877 29.8194 29.8198 29.7919 29.8609C29.7644 29.902 29.7498 29.9503 29.7498 29.9998C29.7494 30.0323 29.7555 30.0645 29.7677 30.0947C29.7798 30.1248 29.7977 30.1523 29.8205 30.1755C29.8432 30.1987 29.8703 30.2172 29.9002 30.23C29.9301 30.2427 29.9623 30.2494 29.9948 30.2498H29.9998Z" stroke="#626262" stroke-width="7.5" stroke-linecap="round" stroke-linejoin="round"/>
<path d="M89.9998 89.7498C89.9503 89.7498 89.902 89.7644 89.8609 89.7919C89.8198 89.8194 89.7877 89.8584 89.7688 89.9041C89.7499 89.9498 89.7449 90 89.7546 90.0485C89.7642 90.097 89.788 90.1416 89.823 90.1765C89.8579 90.2115 89.9025 90.2353 89.951 90.245C89.9995 90.2546 90.0497 90.2496 90.0954 90.2307C90.1411 90.2118 90.1802 90.1798 90.2076 90.1386C90.2351 90.0975 90.2498 90.0492 90.2498 89.9998V89.9998C90.2501 89.9672 90.244 89.935 90.2319 89.9048C90.2197 89.8747 90.2018 89.8472 90.179 89.824C90.1563 89.8008 90.1292 89.7823 90.0993 89.7695C90.0694 89.7568 90.0373 89.7501 90.0048 89.7498H89.9998Z" stroke="#626262" stroke-width="7.5" stroke-linecap="round" stroke-linejoin="round"/>
<path d="M30.2498 89.9998C30.2498 89.9503 30.2351 89.902 30.2076 89.8609C30.1802 89.8198 30.1411 89.7877 30.0954 89.7688C30.0497 89.7499 29.9995 89.7449 29.951 89.7546C29.9025 89.7642 29.8579 89.788 29.823 89.823C29.788 89.8579 29.7642 89.9025 29.7546 89.951C29.7449 89.9995 29.7499 90.0497 29.7688 90.0954C29.7877 90.1411 29.8198 90.1802 29.8609 90.2076C29.902 90.2351 29.9503 90.2498 29.9998 90.2498V90.2498C30.0323 90.2501 30.0645 90.244 30.0947 90.2319C30.1248 90.2197 30.1523 90.2018 30.1755 90.179C30.1987 90.1563 30.2172 90.1292 30.23 90.0993C30.2427 90.0694 30.2494 90.0373 30.2498 90.0048V89.9998Z" stroke="#626262" stroke-width="7.5" stroke-linecap="round" stroke-linejoin="round"/>
<path d="M89.7498 29.9998C89.7498 30.0492 89.7644 30.0976 89.7919 30.1387C89.8194 30.1798 89.8584 30.2118 89.9041 30.2307C89.9498 30.2497 90 30.2546 90.0485 30.245C90.097 30.2353 90.1416 30.2115 90.1765 30.1765C90.2115 30.1416 90.2353 30.097 90.245 30.0485C90.2546 30 90.2496 29.9498 90.2307 29.9041C90.2118 29.8584 90.1798 29.8194 90.1386 29.7919C90.0975 29.7644 90.0492 29.7498 89.9998 29.7498C89.9672 29.7494 89.935 29.7555 89.9048 29.7677C89.8747 29.7798 89.8472 29.7977 89.824 29.8205C89.8008 29.8432 89.7823 29.8703 89.7695 29.9002C89.7568 29.9301 89.7501 29.9623 89.7498 29.9948V29.9998Z" stroke="#626262" stroke-width="7.5" stroke-linecap="round" stroke-linejoin="round"/>
<circle cx="29.9998" cy="29.9998" r="4" fill="#626262"/>
<circle cx="29.9998" cy="89.9998" r="4" fill="#626262"/>
<circle cx="89.9998" cy="89.9998" r="4" fill="#626262"/>
<circle cx="89.9998" cy="29.9998" r="4" fill="#626262"/>
</svg>
