<svg width="45" height="45" viewBox="0 0 45 45" fill="none" xmlns="http://www.w3.org/2000/svg">
<path d="M23.1778 0.797363C11.399 0.797363 1.81543 10.3599 1.81543 22.1147C1.81543 33.8681 11.399 43.4306 23.1778 43.4306C34.9565 43.4306 44.5401 33.8681 44.5401 22.1147C44.5401 10.3599 34.9579 0.797363 23.1778 0.797363Z" fill="black"/>
<path d="M26.003 2.9125C27.0394 2.96172 27.9731 3.15157 28.8155 3.23313C30.8911 4.09797 32.4422 4.71532 33.9778 5.52391C35.4628 6.36907 37.0491 7.29579 38.5045 9.18438C39.8348 10.8086 40.8516 12.3133 41.5927 13.9361C42.3098 15.5589 42.9019 17.2548 43.058 19.2784C43.3308 19.5709 43.522 20.2206 43.5727 21.0813C43.695 21.9391 43.5881 22.9952 43.4967 24.0963C43.2127 26.3069 42.3928 28.5583 42.0722 30.077C41.303 31.9698 40.988 33.1244 41.8823 31.7814C40.4592 34.3338 40.5323 33.4788 39.1922 35.4855C39.2133 35.4981 39.4664 34.6684 39.4664 34.6684C38.9686 35.2802 38.2247 35.7723 37.5863 36.5697L36.9239 37.5597C36.2602 38.0406 35.8003 38.3739 35.3489 38.7016C34.8848 39.0813 34.4278 39.4117 33.9511 39.7309C33.4828 40.0628 33.0103 40.4144 32.4366 40.6872C31.8727 40.9755 31.2652 41.3031 30.5072 41.4944C32.4928 40.9966 29.6958 41.9697 29.9798 42.1173C29.5073 42.2341 27.6384 42.5744 28.2516 42.3522C25.6978 42.8922 23.2172 43.4912 21.7209 42.9217C21.7209 42.9217 20.7394 43.0005 20.7408 42.9723C19.0603 42.9273 17.7877 42.4211 16.3772 41.8656L16.1255 41.9444C15.1256 41.7264 13.4255 40.8995 12.7477 40.3159C10.4766 38.9561 7.71609 37 5.90063 34.8133C5.10469 33.6672 4.93594 33.31 4.62516 33.0738C4.34813 32.8164 4.01766 32.6238 3.42844 31.4791C3.07969 30.7408 2.69437 29.6973 2.32031 28.7298C2.02781 27.7384 1.77891 26.8089 1.79859 26.3013C2.34141 28.5006 2.82937 28.6694 3.64641 30.8519C3.51984 30.4202 3.98672 31.292 4.39313 32.0191C4.83469 32.7292 5.26219 33.2636 4.81219 32.3383C3.57609 30.4947 2.6775 28.1139 2.25984 25.7008C2.02078 24.4942 1.97719 23.2806 1.89844 22.1148C1.93641 20.9505 1.90406 19.8297 2.01937 18.7989C2.20922 18.9803 2.43141 17.7316 2.86453 16.2648C3.04594 15.5223 3.37922 14.7588 3.60281 14.0402C3.88406 13.3441 4.17797 12.738 4.35375 12.3231L4.50984 12.2767C4.92469 11.613 5.27766 11.0519 5.68547 10.3994C6.17063 9.79188 6.59672 8.99172 7.39688 8.065C9.31219 5.85719 11.7042 4.07407 14.0316 3.23875C15.7078 2.54829 17.5781 1.96329 19.2417 1.49922C20.9123 1.06047 22.3861 0.84813 23.1792 0.65688C20.9095 0.496568 18.7073 0.92688 16.7484 1.52735C14.8092 2.21922 13.0725 2.96735 11.4567 3.61282C14.2664 2.08704 14.4352 1.97172 16.6964 0.905786C16.6964 0.905786 16.373 0.969067 16.0523 1.05063C15.7303 1.12938 15.4083 1.20954 15.4083 1.20954L16.3913 0.753911C15.8133 0.770786 17.1506 0.226568 16.958 0.13938C16.9158 0.0100051 13.192 1.48516 13.2272 1.56391C15.217 0.760943 14.0006 1.53438 13.5253 1.945C13.5253 1.945 13.0641 2.15172 12.6014 2.35844C12.15 2.58485 11.7155 2.84641 11.7155 2.84641C12.1584 2.66219 13.2469 2.08704 12.0431 2.92235C11.6916 3.11782 11.2978 3.37375 10.89 3.62829C10.4934 3.89266 10.1095 4.20063 9.71578 4.4186C9.71578 4.4186 10.8014 3.17829 10.8309 3.21204C8.95078 4.80391 7.09453 5.57735 5.63344 7.66985L4.89937 8.06641C4.89937 8.06641 4.545 8.55016 4.19063 9.03391C3.84469 9.52188 3.55641 10.0492 3.55641 10.0492L3.59578 9.75391C3.59578 9.75391 3.20906 10.3656 2.82375 10.9759C2.47641 11.6102 2.16 12.2627 2.16 12.2627C1.50891 13.6886 1.69312 14.0078 1.67766 14.2919C1.23328 15.4 1.06875 16.5405 0.859219 16.9848L1.00266 15.587L0.615937 16.8189C0.9 15.9808 0.46125 17.8863 0.548437 18.2195C0.428906 18.9269 0.347344 19.405 0.288281 19.7552C0.25875 20.1011 0.239063 20.3163 0.222188 20.5131C0.182813 20.8844 0.132187 21.1192 0 22.0234C0.109688 22.9572 0.0998437 24.0006 0.195469 24.8163C0.306563 25.6305 0.406406 26.2253 0.549844 26.252C0.954844 29.6481 2.50172 33.0766 4.42969 35.6852L5.42391 36.7188C6.60516 38.2305 7.64016 39.1895 8.76234 40.0459C9.90703 40.8756 11.1094 41.6547 12.8897 42.5238L12.5705 42.4605C12.5705 42.4605 13.0837 42.6475 13.597 42.8331C13.8516 42.9245 14.1061 43.0159 14.2973 43.0848C14.4942 43.1369 14.6264 43.1706 14.6264 43.1706C15.307 43.4631 15.8977 43.6923 16.4489 43.8695C17.0002 43.9891 17.5275 44.103 18.0689 44.2211C18.5977 44.3547 19.1602 44.3884 19.7887 44.4883C20.1009 44.5403 20.43 44.5952 20.7984 44.657C21.15 44.695 21.5339 44.7372 21.9811 44.7864C22.4437 44.8202 22.8741 44.8638 23.2777 44.8666C23.6798 44.8441 24.0497 44.823 24.4027 44.8019C25.0988 44.7583 25.688 44.6838 26.1886 44.5347C27.1941 44.2816 27.8648 44.0144 28.3866 43.6628C30.0628 43.1495 32.1736 42.5055 33.6066 41.808L32.7305 42.3747L33.9905 41.9205C35.9128 40.6633 36.1589 40.7603 38.3259 38.6847C41.3634 35.9116 40.3397 35.8384 41.2242 34.4083C41.2242 34.4083 41.3817 34.2283 41.5898 33.9386C41.805 33.6503 42.0919 33.265 42.3773 32.8797C42.6811 32.5014 42.8892 32.0669 43.0889 31.7617C43.2759 31.4495 43.4011 31.2414 43.4011 31.2414L43.2928 31.285C43.6092 30.1797 43.6317 29.7325 43.9453 28.9731C44.1098 28.5963 44.2223 28.1013 44.4277 27.3911C44.6625 26.6866 44.8031 25.7233 44.9986 24.4L44.7286 24.6138C45.1406 22.8559 44.8228 22.0572 44.6625 19.7931C44.6175 19.5175 44.5753 19.0956 44.5289 18.5866C44.4994 18.0733 44.4234 17.4798 44.2758 16.8709C44.0677 15.6334 43.5769 14.3439 43.0734 13.4889C42.6797 12.5636 42.3352 11.7452 41.857 11.0927C41.4225 10.4148 40.9795 9.83407 40.4789 9.3236C40.012 8.78922 39.5269 8.30125 38.9827 7.82172C38.7113 7.56016 38.4483 7.30563 38.1811 7.04829C37.8858 6.80079 37.5848 6.53641 37.2755 6.24813C35.8537 4.75047 34.3688 4.34688 34.2408 3.82516L34.5586 4.0136L34.1016 3.28376L33.8836 3.47641C32.8641 2.74797 31.1934 2.11797 30.2723 1.50063C30.2723 1.50063 29.5495 1.35157 28.8113 1.32063C28.4484 1.2925 28.0856 1.26438 27.8128 1.24329C27.5442 1.21657 27.3614 1.22079 27.3614 1.22079C28.0533 1.32766 28.7972 1.56391 29.5411 1.7875L29.4891 1.69047C30.1936 1.9211 31.9247 2.485 32.6278 3.00813L31.6631 2.64391C32.6967 3.21485 31.7559 2.90547 31.448 2.80422C29.3006 1.87047 29.8181 2.29375 28.0927 1.91688C27.72 1.76641 26.9803 1.58782 27.2714 1.56672C26.7469 1.52875 25.8159 1.29672 24.982 1.22922C24.1467 1.17719 23.4295 1.15891 23.3831 1.29532C23.303 1.27563 23.2523 1.26438 23.1764 1.2461C23.3508 1.49922 23.7263 1.76219 24.2227 2.02797C24.7233 2.28813 25.342 2.5511 26.003 2.9125Z" fill="#FF0000"/>
<path d="M26.5587 11.8896C26.5587 11.8896 21.6874 11.8896 20.0196 11.8896C17.0285 11.8896 14.2118 13.9892 14.2118 16.6132C14.2118 19.295 16.2509 21.3804 19.294 21.3804C19.5063 21.3804 19.7116 21.3326 19.9141 21.3171C19.7145 21.694 19.5766 22.099 19.5766 22.542C19.5766 23.2873 19.976 23.8836 20.4823 24.3757C20.1026 24.3757 19.7299 24.3814 19.3263 24.3814C15.6209 24.3828 12.7676 26.7411 12.7676 29.1879C12.7676 31.5982 15.8951 33.1086 19.6005 33.1086C23.8263 33.1086 26.1593 30.7095 26.1593 28.2992C26.1593 26.367 25.5884 25.2082 23.8263 23.9595C23.223 23.5334 22.0699 22.4956 22.0699 21.8839C22.0699 21.1695 22.2738 20.8165 23.351 19.9742C24.4535 19.1121 25.2354 18.0842 25.2354 16.6737C25.2354 14.9961 24.514 12.95 23.1105 12.95H25.497L26.5587 11.8896ZM24.3635 27.8815C24.4141 28.1065 24.4451 28.3371 24.4451 28.5706C24.4451 30.5182 23.1879 32.0412 19.5865 32.0412C17.0243 32.0412 15.1751 30.4198 15.1751 28.4721C15.1751 26.5639 17.4701 24.9734 20.0323 25.0015C20.6285 25.0086 21.1868 25.1042 21.6916 25.2659C23.0838 26.2334 24.0809 26.7804 24.3635 27.8815ZM20.2601 20.6154C18.5402 20.5662 16.9062 18.6917 16.6095 16.4361C16.3141 14.1762 17.4673 12.4479 19.1857 12.4986C20.9041 12.552 22.5396 14.3632 22.8363 16.6217C23.133 18.8787 21.9799 20.6661 20.2601 20.6154Z" fill="white"/>
<path d="M31.863 20.3694V17.187H29.7409V20.3694H26.5586V22.4914H29.7409V25.6737H31.863V22.4914H35.0453V20.3694H31.863Z" fill="white"/>
</svg>
